<svg width="61" height="57" viewBox="0 0 61 57" fill="none" xmlns="http://www.w3.org/2000/svg">
<path d="M52.4411 25.3348C52.4411 37.9925 42.1802 48.2535 29.5225 48.2535C16.8649 48.2535 6.60376 37.9925 6.60376 25.3348C6.60376 12.6772 16.8649 2.41583 29.5225 2.41583C42.1802 2.41583 52.4411 12.6772 52.4411 25.3348Z" fill="#E23B3B"/>
<path d="M59.9006 1.08293C59.68 0.936087 59.4173 0.821345 59.1206 0.741085C58.5172 0.576998 57.8828 0.606127 57.3347 0.821937C56.7419 1.05499 56.318 1.49374 56.1706 2.02584C56.0677 2.3986 56.1635 2.77553 56.4399 3.08765C56.5029 3.15899 56.5737 3.22855 56.648 3.30168C56.8341 3.48419 57.0267 3.67325 57.1408 3.92949C57.3014 4.29036 57.2259 4.75688 56.9393 5.17733C56.9316 5.18898 56.9227 5.19932 56.9126 5.20872C56.9137 5.2102 56.9149 5.21145 56.9161 5.21294C57.1147 5.47488 57.1985 5.8112 57.1456 6.13569C57.0749 6.56511 56.7823 6.88889 56.2746 7.0981C56.2503 7.10809 56.2253 7.11285 56.2003 7.11285C56.1183 7.11285 56.041 7.06071 56.0142 6.97563C55.9839 6.87849 56.0392 6.77438 56.1337 6.7352C56.5594 6.55774 56.7669 6.30228 56.7717 5.95104C56.7734 5.84462 56.7538 5.73802 56.714 5.63945C56.6046 5.36995 56.3828 5.19813 56.1266 5.16948C55.7092 5.12281 55.3846 5.43671 55.041 5.76911C54.8918 5.9134 54.7372 6.06257 54.5749 6.17796C54.132 6.4933 53.6165 6.60679 53.198 6.482C52.7099 6.33634 52.44 5.98082 52.4578 5.50669C52.4822 4.85813 53.0387 4.17199 53.6492 4.03835C53.8924 3.98531 54.0458 3.90749 54.082 3.81951C54.1415 3.67325 53.9435 3.36946 53.7681 3.10133C53.5761 2.80763 53.3775 2.50383 53.3347 2.19349C53.3026 1.96401 53.2961 1.72145 53.2896 1.48721C53.2652 0.583538 53.2117 0.0692749 52.4057 0.00328328C51.9895 -0.0311988 51.5923 0.213149 51.2072 0.449173C51.0212 0.562726 50.8288 0.680443 50.6353 0.766648C50.3399 0.897443 50.0865 0.856417 49.8409 0.816584C49.7578 0.802911 49.6717 0.789238 49.5843 0.782104C49.324 0.76189 48.9456 0.752973 48.6618 0.914088C48.4091 1.05737 48.2536 1.25831 48.1864 1.52823C48.0485 2.08172 48.318 2.77969 48.616 3.24877C49.14 4.07354 49.9782 4.36218 50.7774 4.02687C50.9996 3.93365 51.174 3.7553 51.2557 3.52819C51.2941 3.42118 51.3184 3.31178 51.3254 3.2018C51.3403 2.97053 51.1949 2.54486 50.9338 2.26008C50.8375 2.15485 50.687 2.02822 50.519 2.02465C50.3297 2.01989 50.1864 2.06686 50.125 2.15128C50.0404 2.26721 50.0854 2.47411 50.1391 2.62928C50.1693 2.71667 50.139 2.81596 50.06 2.86352C49.9498 2.9307 49.8134 2.87719 49.7733 2.76245C49.6497 2.40871 49.6621 2.12631 49.8101 1.92239C49.9497 1.73036 50.204 1.62692 50.5277 1.63584C50.7692 1.64119 51.0089 1.76603 51.2208 1.99671C51.5306 2.33499 51.7379 2.85222 51.7138 3.22677C51.6615 4.0431 50.9056 4.8353 50.0961 4.92228C49.2528 5.01366 48.4286 4.54048 47.8824 4.17723C47.8156 4.1327 47.7483 4.08727 47.6804 4.04132C46.9532 3.54959 46.2013 3.04128 45.3647 3.35935L45.3307 3.37243C45.14 3.44615 44.8518 3.55673 44.5946 3.33794C44.4709 3.23212 44.3491 3.11916 44.2313 3.00918C43.9017 2.70181 43.561 2.38433 43.1554 2.22976C41.6614 1.66021 40.1392 1.82549 38.9789 2.68457C38.6411 2.93486 38.3694 3.25709 38.0816 3.59834C37.658 4.10059 37.2202 4.62008 36.555 4.88869C36.2154 5.02578 35.8709 5.05658 35.5377 5.08624C35.2388 5.11294 34.9563 5.13809 34.686 5.23619C34.007 5.4825 33.5497 6.05537 33.3982 6.84935C33.2519 7.61664 33.4109 8.31871 33.8986 9.05865C34.1328 9.41387 34.4101 9.82165 34.7359 10.1665L34.8021 10.2364C35.3234 10.787 35.8625 11.3564 36.1081 12.1051C36.1365 12.1916 36.1642 12.2806 36.1923 12.3708C36.4065 13.0586 36.6278 13.7699 37.3284 13.9436C37.6561 14.0251 38.0098 13.9942 38.3122 13.9533C38.4904 13.9291 38.6841 13.891 38.8892 13.8505C39.4333 13.7432 40.0499 13.6213 40.5699 13.7402C40.7983 13.7923 41.0952 13.8718 41.3646 14.0242C42.6297 14.7406 44.6284 14.3841 45.5574 13.2763C45.6782 13.1321 45.7729 12.9676 45.8731 12.7935C45.9815 12.605 46.0937 12.4101 46.2456 12.2334C46.4884 11.9509 46.7534 11.8918 47.0096 11.8346C47.0964 11.8153 47.186 11.7953 47.28 11.7663C47.6454 11.6535 48.0128 11.4458 48.2627 11.2107C48.5503 10.9402 48.6467 10.5504 48.5493 10.0523C48.4982 9.79175 48.3987 9.55394 48.2934 9.30222C48.1301 8.91168 47.9614 8.50794 47.9869 8.01758C47.9918 7.92662 47.9977 7.83691 48.0036 7.74838C48.047 7.09346 48.0812 6.57617 47.6322 6.08765C47.2558 5.67845 46.6532 5.51097 46.0202 5.63915C45.8714 5.66929 45.7323 5.71804 45.5977 5.76531C45.2003 5.90478 44.7895 6.04895 44.2837 5.63927C43.7006 5.16686 42.9812 4.68394 42.0664 4.684C41.441 4.684 40.9434 4.77609 40.5454 4.9655C40.0869 5.18351 39.823 5.53695 39.5175 5.94616C39.4573 6.02684 39.3961 6.10876 39.3323 6.1911C38.9868 6.63729 38.479 6.71279 38.031 6.77932C37.6108 6.84174 37.2479 6.89566 37.007 7.20125C36.9569 7.26504 36.9176 7.34934 36.8797 7.47443C36.6724 8.16062 36.8213 8.80924 37.3628 9.57754C37.6318 9.95958 37.6875 10.3895 37.7415 10.8052C37.8111 11.3403 37.871 11.8024 38.371 12.0964C38.9219 12.4203 39.5919 12.2192 40.2398 12.0246C40.3762 11.9837 40.5101 11.9436 40.6397 11.9092C41.0615 11.7976 41.5598 11.7195 42.0603 11.9862L42.1969 12.0598C42.507 12.2277 42.8279 12.4014 43.1608 12.4597C43.6438 12.5439 44.1062 12.3531 44.4606 11.9216C44.6002 11.7516 44.7077 11.5634 44.8115 11.3814C45.0917 10.8909 45.381 10.3835 46.2344 10.4325C46.4364 10.4441 46.62 10.3757 46.7547 10.2401C46.9007 10.0932 46.9763 9.88057 46.9621 9.65661C46.9362 9.24734 46.7302 8.83142 46.4113 8.54403C46.2103 8.36306 45.9053 8.30473 45.5823 8.24308C45.1818 8.16651 44.7676 8.08738 44.5189 7.75141C44.4511 7.65986 44.3992 7.56937 44.3533 7.48953C44.2667 7.33924 44.1985 7.22045 44.0535 7.12741C43.7443 6.92902 43.358 6.85999 42.9937 6.93782C42.7446 6.99109 42.5763 7.12913 42.3812 7.28894C42.2415 7.40356 42.097 7.52205 41.9121 7.61718C41.6398 7.75725 41.3892 7.78346 41.147 7.80867C41.0296 7.82098 40.908 7.83358 40.7809 7.85926C40.3984 7.93655 40.045 8.22406 40.1091 8.62399C40.2014 9.19973 41.2894 9.64436 42.0049 9.54288C42.5191 9.47017 42.4844 9.18599 42.4728 9.09253C42.4669 9.04366 42.4313 8.99165 42.3823 8.96008C42.3635 8.94813 42.3153 8.92173 42.2672 8.93665C42.2033 8.95651 42.1329 8.95032 42.0841 8.90449C41.9586 8.78624 42.0142 8.60848 42.1499 8.56555C42.2936 8.51989 42.4554 8.54433 42.5927 8.63262C42.7396 8.72708 42.8391 8.88136 42.8592 9.04527C42.9172 9.51922 42.6182 9.8493 42.0594 9.92831C41.2383 10.0447 39.8655 9.56316 39.7246 8.68565C39.6217 8.04333 40.1393 7.59179 40.7038 7.47776C40.8491 7.44833 40.98 7.43472 41.1067 7.42152C41.3321 7.39798 41.5267 7.37776 41.7339 7.2711C41.8821 7.19483 42.0046 7.09436 42.1345 6.988C42.349 6.81202 42.5709 6.63021 42.9124 6.55714C43.3758 6.45792 43.8689 6.54639 44.2637 6.79983C44.4886 6.94418 44.5913 7.12277 44.6907 7.29548C44.7353 7.37301 44.7773 7.44631 44.8318 7.51991C44.9899 7.73358 45.3132 7.79535 45.6554 7.86075C46.0166 7.92977 46.39 8.00112 46.6717 8.25486C47.0703 8.61401 47.3178 9.11584 47.3506 9.63194C47.3718 9.96701 47.2552 10.2887 47.0307 10.5146C46.8163 10.7301 46.5255 10.8388 46.2122 10.8211C45.5979 10.786 45.4207 11.0998 45.1496 11.5745C45.0376 11.7705 44.9219 11.9732 44.7614 12.1686C44.314 12.7132 43.7215 12.9529 43.094 12.843C42.6984 12.774 42.3491 12.5849 42.0115 12.4022L41.8771 12.3298C41.4968 12.127 41.1054 12.1886 40.7392 12.2856C40.6136 12.3189 40.484 12.3578 40.3518 12.3975C39.6577 12.6058 38.8715 12.8421 38.1737 12.4319C37.5095 12.0414 37.4278 11.4113 37.3556 10.8553C37.3055 10.4695 37.2582 10.1051 37.0445 9.8018C36.4276 8.92619 36.2617 8.1737 36.5072 7.36189C36.5424 7.24489 36.5965 7.09346 36.7013 6.96029C37.0379 6.53337 37.535 6.45947 37.9737 6.39431C38.3857 6.33313 38.7748 6.27528 39.0247 5.9527C39.0869 5.87226 39.1467 5.79218 39.2056 5.71323C39.5281 5.28137 39.8327 4.87335 40.3781 4.61402C40.8296 4.39916 41.3818 4.29482 42.0664 4.29482C43.1026 4.29477 43.8926 4.82151 44.5288 5.33684C44.8657 5.60966 45.0927 5.53005 45.4688 5.39801C45.6089 5.34885 45.7678 5.29314 45.943 5.25764C46.7114 5.10242 47.4495 5.31383 47.9188 5.82428C48.4807 6.43551 48.4375 7.08573 48.3919 7.77413C48.3861 7.86087 48.3804 7.94874 48.3757 8.03792C48.3546 8.43963 48.4993 8.7857 48.6525 9.15198C48.7607 9.41066 48.8726 9.67819 48.9311 9.97753C49.0543 10.6067 48.9154 11.1311 48.5294 11.4942C48.2385 11.7681 47.8142 12.0088 47.3949 12.1383C47.286 12.1718 47.1843 12.1946 47.0944 12.2146C46.8565 12.2677 46.6994 12.3027 46.5407 12.4872C46.5281 12.5019 46.517 12.5176 46.505 12.5327C47.1395 12.3746 47.6241 12.7283 48.0593 13.0486C48.4157 13.311 48.7525 13.5589 49.1625 13.562C49.5654 13.568 49.9186 13.3867 50.1758 13.0461C50.2611 12.933 50.3186 12.8475 50.3596 12.745L50.3853 12.683C50.4196 12.6012 50.4521 12.5239 50.455 12.4554C50.4568 12.4168 50.4549 12.3771 50.4534 12.3371C50.4497 12.2437 50.4455 12.1379 50.4731 12.0302C50.5746 11.6349 51.0106 11.5398 51.3289 11.4703C51.4186 11.4507 51.5034 11.4321 51.565 11.4107C51.8578 11.309 52.2076 11.0366 52.3095 10.713C52.3654 10.5355 52.3376 10.3733 52.2246 10.2171C52.086 10.0256 51.8888 9.97284 51.6392 9.90613C51.5397 9.87956 51.437 9.85197 51.3327 9.81339C50.869 9.64163 50.4784 9.28938 50.2876 8.87114C50.0333 8.31342 50.1869 7.76806 50.6791 7.48186C51.1742 7.19376 51.943 7.25148 52.3727 7.8463C52.5125 8.04005 52.5791 8.24451 52.5648 8.43755C52.5506 8.62548 52.4471 8.95347 51.9097 9.03831C51.8021 9.05531 51.7037 8.98267 51.6871 8.87643C51.6703 8.7703 51.7427 8.67066 51.8489 8.6539C52.1619 8.60449 52.1725 8.46205 52.1764 8.40848C52.1859 8.28179 52.1169 8.15676 52.0572 8.07424C51.7567 7.65838 51.22 7.6173 50.8748 7.81836C50.5583 8.00237 50.4713 8.33559 50.6419 8.70966C50.7883 9.03088 51.1048 9.31381 51.4679 9.44835C51.5551 9.4807 51.6448 9.50466 51.7398 9.5301C51.9657 9.5905 52.216 9.65959 52.4204 9.85441C52.437 9.86178 52.4531 9.8707 52.4673 9.883C52.8775 10.2298 53.692 10.7652 54.5416 10.4544C55.0672 10.2622 55.2657 9.80096 55.4952 9.2669C55.6956 8.80205 55.9025 8.32132 56.3543 7.99838C56.6189 7.80968 56.9102 7.75219 57.192 7.6966C57.3364 7.66812 57.4726 7.64119 57.6022 7.59768C58.4535 7.31165 59.0338 6.51785 59.117 5.52607C59.1563 5.05723 59.0814 4.57633 58.9 4.13531C58.8067 3.9069 58.6598 3.70952 58.5041 3.50084C58.2782 3.19763 58.0451 2.88433 57.9643 2.45627C57.8549 1.88018 58.1872 1.37187 58.7722 1.22027C59.2496 1.09601 59.6901 1.25831 60.1164 1.41527C60.3744 1.51039 60.6182 1.60076 60.8596 1.62395C60.9071 1.6287 60.9541 1.63167 60.9999 1.63227C60.6069 1.55082 60.2775 1.33263 59.9571 1.11979L59.9006 1.08293" fill="white"/>
<path d="M3.7639 37.3997C3.77549 37.6295 3.8114 37.8561 3.86675 38.0874C3.92792 38.3426 3.99118 38.6065 3.99118 38.8939C3.99118 39.156 4.05218 39.4439 3.9526 39.7242L3.92923 39.7921C3.91027 39.8483 3.88928 39.9078 3.86437 39.9672C4.52078 39.7811 5.20965 39.7073 5.90173 39.7663C6.12937 39.7857 6.35291 39.8412 6.5689 39.8949C6.81973 39.9572 7.05866 40.0192 7.27703 40.0148C7.52643 40.0133 7.77928 39.9263 8.04705 39.8343C8.23302 39.7703 8.42534 39.7042 8.62356 39.6658C10.3519 39.3313 12.3145 39.8278 13.745 40.9619C13.9946 41.1597 14.2613 41.4193 14.5017 41.7193C14.4155 41.5242 14.3468 41.3221 14.299 41.1148C14.1314 40.3864 14.354 39.5986 14.8802 39.0591C15.4083 38.5178 16.1646 38.3 16.9569 38.4614C17.2555 38.5221 17.4886 38.3368 17.8431 38.0284C18.1016 37.8037 18.3945 37.5491 18.7649 37.4469C19.782 37.1666 20.8977 37.3837 21.6069 38C21.9426 38.2918 22.3609 38.7684 22.4461 39.3824C22.5264 39.9588 22.2463 40.5155 21.697 40.8718C21.0293 41.3048 20.1554 41.33 19.5229 40.9349C19.2586 40.7698 18.989 40.4471 18.9829 40.0982C18.979 39.8731 19.0869 39.6748 19.2869 39.5401C19.3967 39.466 19.5465 39.4948 19.6209 39.6052C19.6952 39.7153 19.666 39.8648 19.5558 39.9391C19.4737 39.9946 19.4633 40.0464 19.4641 40.0898C19.4665 40.2264 19.6043 40.4183 19.7777 40.5267C20.3292 40.8711 21.0074 40.7454 21.4352 40.468C21.8292 40.2123 22.0241 39.8408 21.9696 39.4486C21.9047 38.9824 21.5649 38.6011 21.2912 38.3633C20.7003 37.8498 19.7591 37.6721 18.8927 37.911C18.6276 37.9839 18.4001 38.1819 18.159 38.3916C17.807 38.6977 17.4078 39.0446 16.8607 38.933C16.2231 38.8028 15.6422 38.9671 15.2247 39.3951C14.8118 39.8187 14.6366 40.4363 14.768 41.0069C14.9749 41.9048 15.6247 42.6998 16.5067 43.1334C16.9675 43.36 17.4947 43.4908 18.0313 43.5116C18.2445 43.5196 18.4482 43.5088 18.6445 43.4982C18.965 43.4807 19.2968 43.4627 19.666 43.53L19.7022 43.5366C20.407 43.6648 21.016 43.7752 21.7165 43.6293C22.8833 43.3856 23.944 42.569 24.4846 41.4981C24.9223 40.6309 24.965 39.7207 24.6051 38.9353C24.4722 38.6457 24.1943 38.3719 23.9255 38.1071C23.5012 37.6891 23.0624 37.257 23.0621 36.6706C23.0615 35.3412 22.0825 34.0397 20.5075 33.274C19.4949 32.7817 18.1405 32.6806 16.9732 33.01C16.2596 33.2111 15.667 33.6068 15.108 34.2553C14.9772 34.4072 14.8539 34.5831 14.7236 34.7693C14.3789 35.2611 13.9884 35.8185 13.3368 36.0486C12.8037 36.2369 12.2839 36.1779 11.7813 36.1209C11.5098 36.0902 11.2532 36.0611 10.9951 36.0685C10.2031 36.0912 9.305 36.6025 8.90601 37.2578C8.74199 37.5271 8.59264 37.9441 8.81267 38.4018C8.87028 38.5216 8.81987 38.6654 8.70001 38.723C8.58045 38.7806 8.43646 38.7302 8.37903 38.6103C8.13427 38.1014 8.17547 37.5321 8.4949 37.0074C8.97932 36.2121 10.0248 35.6149 10.9813 35.5875C11.2755 35.579 11.5594 35.6114 11.8355 35.6427C12.3048 35.696 12.7479 35.7463 13.1766 35.5949C13.6827 35.4161 14.0116 34.9468 14.3295 34.4931C14.3754 34.4276 14.4242 34.3598 14.4734 34.3006C14.4651 34.2861 14.4508 34.2807 14.4333 34.2804C14.2136 34.2769 13.9922 34.3014 13.7754 34.266C13.4431 34.2118 13.0953 34.0733 12.7788 33.9595C12.1039 33.7164 11.4833 33.6524 10.7761 33.7962C10.4273 33.8672 10.0873 33.9811 9.76628 34.1348C9.59732 34.2157 9.43365 34.3076 9.27687 34.4101C9.11457 34.5161 9.03502 34.6028 8.92474 34.7514C8.721 35.028 8.37255 35.0221 8.11893 35.0172C8.07713 35.0165 8.03588 35.0155 7.99652 35.0162C7.8571 35.0179 7.74325 34.9574 7.60842 34.9243C7.45872 34.8876 7.30503 34.8692 7.15159 34.8576C6.88162 34.8373 6.61004 34.8379 6.34037 34.8614C5.9025 34.8995 5.46714 34.9993 5.07047 35.1885C4.66263 35.3831 4.25812 35.6866 4.03292 36.0861C3.88667 36.3452 3.80409 36.6332 3.77519 36.9252C3.75926 37.0864 3.75599 37.2438 3.7639 37.3997" fill="white"/>
<path d="M33.1651 55.2187C33.349 55.1111 33.5305 55.0052 33.7098 54.9042C34.3474 54.5445 35.0324 54.1723 35.7784 53.9179C36.1862 53.7787 36.8063 53.6004 37.3825 53.5665C36.7373 53.4613 35.985 53.5641 35.5644 53.642C35.1875 53.7122 34.8128 53.8114 34.416 53.9167C33.6283 54.1248 32.8151 54.3406 31.9821 54.3096C30.6271 54.2597 29.683 53.5475 29.5182 52.4512C29.5147 52.428 29.5157 52.4054 29.5188 52.3834C29.3544 52.4078 29.1836 52.4203 29.0126 52.4203C28.5688 52.4203 28.1272 52.346 27.8143 52.2431C27.5265 52.1486 26.9683 51.8632 26.9151 51.458C26.8991 51.3369 26.9174 51.1042 27.2192 50.9068C27.5139 50.7141 27.9165 50.8126 28.1301 50.8886C28.2555 50.9331 28.3208 51.0707 28.2763 51.1959C28.232 51.3211 28.0938 51.3865 27.9691 51.3421C27.7581 51.2671 27.5671 51.2542 27.4827 51.3096C27.4145 51.3542 27.3939 51.3871 27.3919 51.3951C27.3929 51.4713 27.6608 51.686 27.9644 51.7859C28.5582 51.9809 29.6414 52.0338 30.058 51.6783C30.2043 51.5535 30.2552 51.3884 30.2183 51.1592C30.1943 51.0113 30.1017 50.8651 29.9705 50.768C29.9555 50.7585 29.8971 50.7333 29.8583 50.7167C29.6623 50.6326 29.3936 50.5173 29.4108 50.2554C29.4177 50.16 29.4372 50.0717 29.4559 49.9865C29.5037 49.7696 29.5139 49.679 29.4299 49.5871C29.2069 49.3427 28.9756 49.3499 28.7303 49.3566L28.6805 49.358C28.4948 49.3625 28.31 49.421 28.1143 49.483C27.9332 49.5404 27.7461 49.5997 27.5409 49.6222C27.1538 49.665 26.8171 49.6093 26.5379 49.4589C26.3207 50.1667 25.5946 50.6666 24.7119 50.6666C24.5791 50.6666 24.4713 50.5589 24.4713 50.426C24.4713 50.293 24.5791 50.1853 24.7119 50.1853C25.4752 50.1853 26.0814 49.7113 26.1217 49.0827C26.1607 48.4778 25.5931 47.878 24.9071 47.7992C24.3274 47.7324 23.7165 48.0132 23.126 48.2848C22.8705 48.4023 22.629 48.5133 22.388 48.5983C21.6585 48.8564 20.4313 48.8355 19.6408 48.3542C19.2358 48.1077 18.9918 47.7613 18.9352 47.3525C18.8915 47.0356 18.9447 46.7695 19.0707 46.5427C18.2438 46.8673 17.59 47.3083 17.4553 47.9664C17.2777 48.8335 17.6598 49.4022 18.6939 49.8106C19.0855 49.9651 19.4814 50.0234 19.8383 49.9778C19.9702 49.9619 20.0905 50.0546 20.1073 50.1864C20.1239 50.3182 20.0306 50.4386 19.8987 50.4553C19.8 50.4678 19.6995 50.474 19.5972 50.474C19.2466 50.474 18.8786 50.4009 18.5172 50.2582C17.258 49.761 16.7564 48.9798 16.9838 47.8699C17.2426 46.6047 18.7511 46.0461 20.37 45.6417C21.0465 45.4063 21.8731 45.2668 22.656 45.1352C23.6207 44.9731 24.532 44.8199 24.932 44.5298C25.4677 44.1414 25.5725 43.6258 25.2194 43.1151C25.1449 43.0071 25.1705 42.8591 25.2772 42.7826C25.8662 42.3606 26.1866 41.7099 26.156 40.9974C26.1271 40.318 25.7865 39.6898 25.2317 39.2698C25.4314 40.0535 25.3241 40.9032 24.9144 41.7149C24.3093 42.9134 23.1218 43.8275 21.8152 44.1004C21.5433 44.1571 21.2845 44.1799 21.0325 44.1799C20.5495 44.1799 20.0916 44.0965 19.6163 44.0101L19.5801 44.0034C19.2666 43.9465 18.9772 43.9621 18.6709 43.9787C18.4634 43.99 18.2491 44.0015 18.0129 43.9925C17.4096 43.9691 16.8152 43.8214 16.2944 43.5653C15.8048 43.3245 15.3781 42.9847 15.0403 42.5809C15.1779 42.8852 15.2681 43.2059 15.2826 43.5303C15.3072 44.0748 15.1062 44.5658 14.7017 44.9504C14.6939 44.958 14.0223 45.5502 13.5079 45.7533C13.9811 46.7531 13.9028 47.6393 13.2721 48.4535C12.1303 49.9282 9.83101 49.9836 8.35589 49.1892C8.04329 49.0209 7.47969 48.6524 7.21566 48.0758C7.11875 47.8639 7.09051 47.7063 7.07 47.5913C7.06281 47.5513 7.05306 47.4966 7.04539 47.4829C7.04022 47.4786 6.9904 47.441 6.72375 47.3912C6.54534 47.3577 6.37364 47.3324 6.20789 47.3081C5.51189 47.2056 4.85435 47.1089 4.26328 46.4779C3.37643 45.5312 3.24796 44.211 3.94384 43.1929C4.71416 42.0658 6.07995 41.5778 7.50519 41.9177C7.61 41.9426 7.70293 41.9688 7.79014 41.9933C8.05007 42.0666 8.22147 42.1149 8.51474 42.0788C8.6239 42.0655 8.7318 42.0337 8.84619 42.0002C9.07514 41.933 9.33405 41.8569 9.64112 41.9269C10.1858 42.0517 10.715 42.3902 11.2138 42.9332C11.4186 43.156 11.6705 43.4596 11.8018 43.8323C11.9442 44.2367 11.8936 44.6668 11.6591 45.0434C11.3636 45.5181 10.8024 45.8578 10.1946 45.9301C9.54558 46.0069 8.97966 45.6505 8.72919 45.2862C8.54798 45.0225 8.51159 44.7427 8.62943 44.5185C8.72651 44.3339 8.96777 44.1138 9.56526 44.1138C9.69813 44.1138 9.80592 44.2214 9.80592 44.3543C9.80592 44.4873 9.69813 44.595 9.56526 44.595C9.24648 44.595 9.09297 44.6712 9.05534 44.7426C9.02431 44.8014 9.05124 44.9052 9.12567 45.0134C9.30242 45.2703 9.70693 45.5039 10.1379 45.4521C10.6039 45.3968 11.0303 45.1426 11.2507 44.789C11.3606 44.6121 11.4669 44.3303 11.3477 43.9922C11.268 43.7657 11.1174 43.5395 10.8594 43.2588C10.4277 42.7889 9.98172 42.4987 9.53369 42.3962C9.34957 42.354 9.17894 42.4041 8.98168 42.4619C8.85392 42.4995 8.72164 42.5384 8.5733 42.5565C8.18496 42.6042 7.94115 42.5358 7.65965 42.4566C7.5782 42.4337 7.4914 42.4091 7.39354 42.3857C6.16609 42.0925 4.99578 42.5062 4.34116 43.4644C3.77559 44.2919 3.88546 45.3708 4.61446 46.149C5.09061 46.6573 5.61468 46.7343 6.27792 46.8319C6.44968 46.8572 6.62744 46.8834 6.81246 46.918C7.36251 47.021 7.48218 47.1618 7.54377 47.5067C7.56161 47.6063 7.58171 47.7191 7.65329 47.8755C7.80334 48.2033 8.14246 48.5277 8.58395 48.7655C9.89177 49.4698 11.9351 49.3938 12.8918 48.1588C13.4676 47.4154 13.4736 46.6189 12.9109 45.6527C12.9107 45.6524 12.9107 45.6523 12.9106 45.6521C12.9106 45.652 12.9106 45.652 12.9106 45.652C12.8437 45.5372 12.8826 45.3898 12.9974 45.323C13.0817 45.2736 13.184 45.2817 13.2589 45.3353C13.4942 45.2813 14.1714 44.7906 14.3702 44.6017C14.6749 44.3119 14.8202 43.9587 14.8018 43.5519C14.7653 42.7367 14.0946 41.853 13.4464 41.339C12.1226 40.2897 10.3094 39.8294 8.71527 40.1383C8.55012 40.1703 8.38193 40.2282 8.20375 40.2894C7.91113 40.3901 7.60846 40.4941 7.28005 40.4961C7.00407 40.4943 6.72173 40.4287 6.45325 40.362C6.24612 40.3106 6.05064 40.2619 5.86105 40.2458C5.09138 40.1801 4.3257 40.2921 3.61305 40.5532C3.5706 40.5923 3.51692 40.6169 3.458 40.6169C3.45473 40.6169 3.45128 40.6156 3.44789 40.6154C2.50629 40.9958 1.66755 41.6425 1.05376 42.5004C0.0978367 43.8367 -0.121184 45.4352 0.468044 46.7762C0.985038 47.9525 2.08353 48.38 3.57393 48.6598C4.24449 48.7859 4.24853 49.33 4.25121 49.69C4.25216 49.7987 4.25293 49.9013 4.26643 49.9923C4.35775 50.6053 4.54716 51.0486 4.86267 51.3872C6.02103 52.6313 8.71777 52.5861 10.2624 52.1569C10.4094 52.1165 10.557 52.0725 10.7048 52.0291C11.8807 51.6831 13.2139 51.2906 14.3563 52.2913C14.4562 52.3787 14.4662 52.5308 14.3787 52.6307C14.2914 52.7306 14.1391 52.7407 14.0392 52.6533C13.2634 51.9738 12.3845 52.0719 11.4513 52.3174C12.0574 52.5647 12.5516 53.0897 12.8259 53.6925C13.4456 55.0546 14.2582 55.5136 15.4623 55.1806C16.3241 54.9422 17.0673 54.3804 17.7862 53.8382C18.8841 53.0088 20.0198 52.1509 21.6342 52.337C22.5401 52.4405 23.2847 52.966 23.5319 53.6753C23.7432 54.2823 23.9912 54.6426 24.6325 54.6866C25.1898 54.7252 25.7793 54.5154 26.4039 54.2936C27.4391 53.9262 28.6119 53.51 29.6292 54.4351C29.7275 54.5249 29.7347 54.6771 29.6452 54.7752C29.5557 54.8738 29.4038 54.881 29.3053 54.7912C28.5015 54.06 27.6039 54.3786 26.5648 54.7472C26.4884 54.774 26.4117 54.8013 26.3347 54.8281C26.7666 54.9904 27.1088 55.2502 27.4623 55.5201C27.7203 55.7169 27.9873 55.9208 28.305 56.095C28.8058 56.3703 29.3582 56.5052 29.9066 56.4838C31.0807 56.438 32.1403 55.8185 33.1651 55.2187" fill="white"/>
</svg>
