<svg width="500" height="500" viewBox="0 0 500 500" fill="none" xmlns="http://www.w3.org/2000/svg">
<rect width="500" height="500" fill="#F7F4EA"/>
<ellipse cx="431.135" cy="256.369" rx="6.37053" ry="6.24312" fill="#414141"/>
<ellipse cx="348.445" cy="256.496" rx="6.24312" ry="6.11571" fill="#414141"/>
<path d="M330.314 248.037C335.965 243.093 338.367 229.813 340.91 228.965L370.577 227.906C370.93 230.025 371.425 234.899 370.577 237.442C369.518 240.62 368.458 246.978 367.398 251.216C366.551 254.607 365.632 256.867 365.279 257.573H339.85L330.314 248.037Z" fill="#E93E34" stroke="#4C4C4C" stroke-width="5"/>
<path d="M412.958 248.037C418.609 243.093 417.832 232.992 420.375 232.144L453.222 227.906C453.575 230.025 454.069 234.899 453.222 237.442C452.162 240.62 451.102 246.978 450.043 251.216C449.195 254.607 448.277 256.867 447.924 257.573H419.316L412.958 248.037Z" fill="#E93E34" stroke="#4C4C4C" stroke-width="5"/>
<path d="M87.5693 223.35C87.8519 215.792 90.3242 209.964 94.9862 205.867C99.6483 201.77 105.97 199.722 113.952 199.722C119.25 199.722 123.771 200.64 127.515 202.476C131.329 204.313 134.19 206.821 136.097 209.999C138.075 213.178 139.064 216.745 139.064 220.701C139.064 225.363 137.898 229.177 135.567 232.144C133.236 235.04 130.517 237.018 127.409 238.078V238.501C131.435 239.843 134.614 242.068 136.945 245.177C139.276 248.285 140.441 252.276 140.441 257.15C140.441 261.529 139.417 265.414 137.368 268.805C135.391 272.125 132.459 274.738 128.574 276.645C124.76 278.553 120.204 279.506 114.906 279.506C106.429 279.506 99.6483 277.422 94.5624 273.255C89.5472 269.087 86.8983 262.8 86.6157 254.395H104.204C104.275 257.503 105.158 259.975 106.853 261.812C108.549 263.577 111.021 264.46 114.27 264.46C117.025 264.46 119.144 263.683 120.627 262.129C122.181 260.505 122.958 258.386 122.958 255.772C122.958 252.381 121.864 249.945 119.674 248.461C117.555 246.907 114.129 246.13 109.396 246.13H106.006V231.402H109.396C112.999 231.402 115.895 230.802 118.085 229.601C120.345 228.33 121.475 226.105 121.475 222.926C121.475 220.383 120.769 218.405 119.356 216.992C117.943 215.58 116.001 214.873 113.528 214.873C110.844 214.873 108.831 215.686 107.489 217.31C106.217 218.935 105.476 220.948 105.264 223.35H87.5693Z" fill="#414141"/>
<path d="M162 213.602C158.821 213.602 156.208 212.683 154.159 210.847C152.181 208.94 151.192 206.609 151.192 203.854C151.192 201.028 152.181 198.697 154.159 196.861C156.208 194.954 158.821 194 162 194C165.108 194 167.651 194.954 169.629 196.861C171.677 198.697 172.701 201.028 172.701 203.854C172.701 206.609 171.677 208.94 169.629 210.847C167.651 212.683 165.108 213.602 162 213.602ZM171.006 219.747V278.87H152.888V219.747H171.006Z" fill="#414141"/>
<path d="M244.531 219.747L207.446 306.949H187.951L201.513 276.857L177.461 219.747H197.699L211.367 256.726L224.929 219.747H244.531Z" fill="#414141"/>
<path d="M247.48 249.203C247.48 243.128 248.61 237.795 250.871 233.204C253.202 228.612 256.345 225.08 260.301 222.608C264.256 220.136 268.671 218.9 273.545 218.9C277.713 218.9 281.351 219.747 284.459 221.442C287.637 223.138 290.074 225.363 291.77 228.118V219.747H309.888V278.87H291.77V270.5C290.004 273.255 287.531 275.48 284.353 277.175C281.245 278.87 277.607 279.718 273.439 279.718C268.636 279.718 264.256 278.482 260.301 276.01C256.345 273.467 253.202 269.899 250.871 265.308C248.61 260.646 247.48 255.278 247.48 249.203ZM291.77 249.309C291.77 244.788 290.498 241.221 287.955 238.607C285.483 235.994 282.446 234.687 278.843 234.687C275.241 234.687 272.168 235.994 269.625 238.607C267.153 241.15 265.916 244.682 265.916 249.203C265.916 253.724 267.153 257.326 269.625 260.01C272.168 262.624 275.241 263.931 278.843 263.931C282.446 263.931 285.483 262.624 287.955 260.01C290.498 257.397 291.77 253.83 291.77 249.309Z" fill="#414141"/>
<path d="M359.021 219.111C365.943 219.111 371.453 221.372 375.55 225.893C379.717 230.343 381.801 236.488 381.801 244.329V278.87H363.789V246.766C363.789 242.81 362.765 239.737 360.716 237.548C358.668 235.358 355.913 234.263 352.452 234.263C348.99 234.263 346.235 235.358 344.187 237.548C342.138 239.737 341.114 242.81 341.114 246.766V278.87H322.996V219.747H341.114V227.588C342.951 224.974 345.423 222.926 348.531 221.442C351.639 219.888 355.136 219.111 359.021 219.111Z" fill="#414141"/>
<path d="M392.802 213.602C389.624 213.602 387.01 212.683 384.962 210.847C382.984 208.94 381.995 206.609 381.995 203.854C381.995 201.028 382.984 198.697 384.962 196.861C387.01 194.954 389.624 194 392.802 194C395.91 194 398.453 194.954 400.431 196.861C402.48 198.697 403.504 201.028 403.504 203.854C403.504 206.609 402.48 208.94 400.431 210.847C398.453 212.683 395.91 213.602 392.802 213.602ZM403.504 219.794L390.708 270.5L403.423 278.87H383.69V219.747L403.504 219.794Z" fill="#414141"/>
<path d="M440.58 219.158C447.502 219.158 453.012 221.419 457.109 225.939C461.277 230.39 463.36 236.535 463.36 244.376V278.917H445.348V246.813C445.348 242.857 444.324 239.784 442.275 237.594C440.227 235.405 437.472 234.31 434.011 234.31C430.55 234.31 427.795 235.405 425.746 237.594C423.698 239.784 422.674 242.857 422.674 246.813V278.917H404.555V219.794H422.674V227.635C424.51 225.021 426.982 222.973 430.09 221.489C433.198 219.935 436.695 219.158 440.58 219.158Z" fill="#414141"/>
<path d="M55.4756 266.123H79.6775V280.384H37V204.537H55.4756V266.123Z" fill="#414141"/>
</svg>
